<svg id="svg" version="1.1" xmlns="http://www.w3.org/2000/svg" xmlns:xlink="http://www.w3.org/1999/xlink" width="400" height="400" viewBox="0, 0, 400,400"><g id="svgg"><path id="path0" d="M62.497 31.094 L 62.400 62.389 49.900 62.500 L 37.400 62.612 49.913 62.706 C 59.624 62.779,62.468 62.688,62.616 62.300 C 62.721 62.025,62.759 47.850,62.701 30.800 L 62.595 -0.200 62.497 31.094 M112.400 33.600 C 112.400 34.133,112.133 34.400,111.600 34.400 C 111.067 34.400,110.800 34.667,110.800 35.200 C 110.800 35.733,110.533 36.000,110.000 36.000 C 109.467 36.000,109.200 36.267,109.200 36.800 C 109.200 37.244,108.933 37.600,108.600 37.600 C 108.079 37.600,108.000 39.333,108.000 50.800 C 108.000 62.267,108.079 64.000,108.600 64.000 C 108.933 64.000,109.200 64.356,109.200 64.800 C 109.200 65.333,109.467 65.600,110.000 65.600 C 110.533 65.600,110.800 65.867,110.800 66.400 C 110.800 66.933,111.067 67.200,111.600 67.200 C 112.133 67.200,112.400 67.467,112.400 68.000 C 112.400 68.798,112.667 68.800,200.800 68.800 C 288.933 68.800,289.200 68.798,289.200 68.000 C 289.200 67.467,289.467 67.200,290.000 67.200 C 290.533 67.200,290.800 66.933,290.800 66.400 C 290.800 65.956,291.067 65.600,291.400 65.600 C 291.733 65.600,292.000 65.244,292.000 64.800 C 292.000 64.267,292.267 64.000,292.800 64.000 C 293.584 64.000,293.600 63.733,293.600 50.800 C 293.600 37.867,293.584 37.600,292.800 37.600 C 292.267 37.600,292.000 37.333,292.000 36.800 C 292.000 36.356,291.733 36.000,291.400 36.000 C 291.067 36.000,290.800 35.644,290.800 35.200 C 290.800 34.667,290.533 34.400,290.000 34.400 C 289.467 34.400,289.200 34.133,289.200 33.600 C 289.200 33.067,288.933 32.800,288.400 32.800 C 287.867 32.800,287.600 33.067,287.600 33.600 C 287.600 34.133,287.333 34.400,286.800 34.400 C 286.267 34.400,286.000 34.667,286.000 35.200 C 286.000 35.733,285.733 36.000,285.200 36.000 C 284.667 36.000,284.400 36.267,284.400 36.800 C 284.400 37.333,284.133 37.600,283.600 37.600 C 282.933 37.600,282.800 37.867,282.800 39.200 C 282.800 40.533,282.667 40.800,282.000 40.800 C 281.297 40.800,281.200 41.067,281.200 43.000 C 281.200 44.933,281.103 45.200,280.400 45.200 C 279.733 45.200,279.600 45.467,279.600 46.800 C 279.600 48.133,279.467 48.400,278.800 48.400 C 278.267 48.400,278.000 48.667,278.000 49.200 C 278.000 49.733,277.733 50.000,277.200 50.000 C 276.667 50.000,276.400 50.267,276.400 50.800 C 276.400 51.333,276.133 51.600,275.600 51.600 C 275.067 51.600,274.800 51.867,274.800 52.400 C 274.800 52.844,274.533 53.200,274.200 53.200 C 273.867 53.200,273.600 53.556,273.600 54.000 C 273.600 54.667,273.333 54.800,272.000 54.800 C 270.667 54.800,270.400 54.933,270.400 55.600 C 270.400 56.311,270.133 56.400,268.000 56.400 C 265.867 56.400,265.600 56.489,265.600 57.200 C 265.600 57.911,265.333 58.000,263.200 58.000 C 261.067 58.000,260.800 57.911,260.800 57.200 C 260.800 56.497,260.533 56.400,258.600 56.400 C 256.667 56.400,256.400 56.303,256.400 55.600 C 256.400 54.933,256.133 54.800,254.800 54.800 C 253.467 54.800,253.200 54.667,253.200 54.000 C 253.200 53.467,252.933 53.200,252.400 53.200 C 251.867 53.200,251.600 52.933,251.600 52.400 C 251.600 51.867,251.333 51.600,250.800 51.600 C 250.267 51.600,250.000 51.333,250.000 50.800 C 250.000 50.267,249.733 50.000,249.200 50.000 C 248.667 50.000,248.400 49.733,248.400 49.200 C 248.400 48.667,248.133 48.400,247.600 48.400 C 246.933 48.400,246.800 48.133,246.800 46.800 C 246.800 45.467,246.667 45.200,246.000 45.200 C 245.297 45.200,245.200 44.933,245.200 43.000 C 245.200 41.067,245.103 40.800,244.400 40.800 C 243.733 40.800,243.600 40.533,243.600 39.200 C 243.600 37.867,243.467 37.600,242.800 37.600 C 242.267 37.600,242.000 37.333,242.000 36.800 C 242.000 36.356,241.733 36.000,241.400 36.000 C 241.067 36.000,240.800 35.644,240.800 35.200 C 240.800 34.667,240.533 34.400,240.000 34.400 C 239.467 34.400,239.200 34.133,239.200 33.600 C 239.200 32.806,238.933 32.800,200.800 32.800 C 162.667 32.800,162.400 32.806,162.400 33.600 C 162.400 34.133,162.133 34.400,161.600 34.400 C 161.067 34.400,160.800 34.667,160.800 35.200 C 160.800 35.733,160.533 36.000,160.000 36.000 C 159.467 36.000,159.200 36.267,159.200 36.800 C 159.200 37.244,158.933 37.600,158.600 37.600 C 158.167 37.600,158.000 38.044,158.000 39.200 C 158.000 40.533,157.867 40.800,157.200 40.800 C 156.497 40.800,156.400 41.067,156.400 43.000 C 156.400 44.933,156.303 45.200,155.600 45.200 C 154.933 45.200,154.800 45.467,154.800 46.800 C 154.800 48.133,154.667 48.400,154.000 48.400 C 153.467 48.400,153.200 48.667,153.200 49.200 C 153.200 49.733,152.933 50.000,152.400 50.000 C 151.867 50.000,151.600 50.267,151.600 50.800 C 151.600 51.333,151.333 51.600,150.800 51.600 C 150.267 51.600,150.000 51.867,150.000 52.400 C 150.000 52.933,149.733 53.200,149.200 53.200 C 148.667 53.200,148.400 53.467,148.400 54.000 C 148.400 54.667,148.133 54.800,146.800 54.800 C 145.467 54.800,145.200 54.933,145.200 55.600 C 145.200 56.303,144.933 56.400,143.000 56.400 C 141.067 56.400,140.800 56.497,140.800 57.200 C 140.800 57.911,140.533 58.000,138.400 58.000 C 136.267 58.000,136.000 57.911,136.000 57.200 C 136.000 56.489,135.733 56.400,133.600 56.400 C 131.467 56.400,131.200 56.311,131.200 55.600 C 131.200 54.933,130.933 54.800,129.600 54.800 C 128.267 54.800,128.000 54.667,128.000 54.000 C 128.000 53.467,127.733 53.200,127.200 53.200 C 126.667 53.200,126.400 52.933,126.400 52.400 C 126.400 51.867,126.133 51.600,125.600 51.600 C 125.067 51.600,124.800 51.333,124.800 50.800 C 124.800 50.356,124.533 50.000,124.200 50.000 C 123.867 50.000,123.600 49.644,123.600 49.200 C 123.600 48.667,123.333 48.400,122.800 48.400 C 122.133 48.400,122.000 48.133,122.000 46.800 C 122.000 45.467,121.867 45.200,121.200 45.200 C 120.497 45.200,120.400 44.933,120.400 43.000 C 120.400 41.067,120.303 40.800,119.600 40.800 C 118.933 40.800,118.800 40.533,118.800 39.200 C 118.800 37.867,118.667 37.600,118.000 37.600 C 117.467 37.600,117.200 37.333,117.200 36.800 C 117.200 36.267,116.933 36.000,116.400 36.000 C 115.867 36.000,115.600 35.733,115.600 35.200 C 115.600 34.667,115.333 34.400,114.800 34.400 C 114.267 34.400,114.000 34.133,114.000 33.600 C 114.000 33.067,113.733 32.800,113.200 32.800 C 112.667 32.800,112.400 33.067,112.400 33.600 M343.700 62.699 C 347.165 62.766,352.835 62.766,356.300 62.699 C 359.765 62.633,356.930 62.578,350.000 62.578 C 343.070 62.578,340.235 62.633,343.700 62.699 M18.100 63.076 C 18.485 63.176,19.115 63.176,19.500 63.076 C 19.885 62.975,19.570 62.893,18.800 62.893 C 18.030 62.893,17.715 62.975,18.100 63.076 M380.500 63.076 C 380.885 63.176,381.515 63.176,381.900 63.076 C 382.285 62.975,381.970 62.893,381.200 62.893 C 380.430 62.893,380.115 62.975,380.500 63.076 M14.182 64.182 C 13.642 64.722,13.225 65.577,13.254 66.082 C 13.306 66.951,13.318 66.955,13.476 66.150 C 13.675 65.135,15.085 63.756,16.200 63.486 C 16.911 63.314,16.898 63.288,16.082 63.246 C 15.577 63.221,14.722 63.642,14.182 64.182 M383.850 63.476 C 384.877 63.677,386.267 65.111,386.460 66.167 C 386.634 67.120,387.600 67.504,387.600 66.620 C 387.600 65.605,384.957 63.192,383.913 63.254 C 383.044 63.306,383.041 63.317,383.850 63.476 M12.893 68.800 C 12.893 69.570,12.975 69.885,13.076 69.500 C 13.176 69.115,13.176 68.485,13.076 68.100 C 12.975 67.715,12.893 68.030,12.893 68.800 M12.596 162.600 C 12.596 203.960,12.643 220.939,12.700 200.332 C 12.757 179.724,12.757 145.884,12.700 125.132 C 12.643 104.379,12.596 121.240,12.596 162.600 M62.400 108.600 C 62.400 108.933,62.044 109.200,61.600 109.200 C 61.067 109.200,60.800 109.467,60.800 110.000 C 60.800 110.533,60.533 110.800,60.000 110.800 C 59.467 110.800,59.200 111.067,59.200 111.600 C 59.200 112.044,58.933 112.400,58.600 112.400 C 58.070 112.400,58.000 118.311,58.000 163.200 C 58.000 208.089,58.070 214.000,58.600 214.000 C 58.933 214.000,59.200 214.356,59.200 214.800 C 59.200 215.333,59.467 215.600,60.000 215.600 C 60.533 215.600,60.800 215.867,60.800 216.400 C 60.800 216.933,61.067 217.200,61.600 217.200 C 62.133 217.200,62.400 217.467,62.400 218.000 C 62.400 218.533,62.667 218.800,63.200 218.800 C 63.733 218.800,64.000 218.533,64.000 218.000 C 64.000 217.467,64.267 217.200,64.800 217.200 C 65.333 217.200,65.600 216.933,65.600 216.400 C 65.600 215.867,65.867 215.600,66.400 215.600 C 66.933 215.600,67.200 215.333,67.200 214.800 C 67.200 214.267,67.467 214.000,68.000 214.000 C 68.785 214.000,68.800 213.733,68.800 200.000 C 68.800 186.267,68.815 186.000,69.600 186.000 C 70.311 186.000,70.400 185.733,70.400 183.600 C 70.400 181.467,70.489 181.200,71.200 181.200 C 71.867 181.200,72.000 180.933,72.000 179.600 C 72.000 178.267,72.133 178.000,72.800 178.000 C 73.333 178.000,73.600 177.733,73.600 177.200 C 73.600 176.756,73.867 176.400,74.200 176.400 C 74.533 176.400,74.800 176.044,74.800 175.600 C 74.800 175.067,75.067 174.800,75.600 174.800 C 76.044 174.800,76.400 174.533,76.400 174.200 C 76.400 173.867,76.756 173.600,77.200 173.600 C 77.733 173.600,78.000 173.333,78.000 172.800 C 78.000 172.133,78.267 172.000,79.600 172.000 C 80.933 172.000,81.200 171.867,81.200 171.200 C 81.200 170.489,81.467 170.400,83.600 170.400 C 85.733 170.400,86.000 170.311,86.000 169.600 C 86.000 168.802,86.267 168.800,200.800 168.800 C 315.333 168.800,315.600 168.802,315.600 169.600 C 315.600 170.311,315.867 170.400,318.000 170.400 C 320.133 170.400,320.400 170.489,320.400 171.200 C 320.400 171.867,320.667 172.000,322.000 172.000 C 323.333 172.000,323.600 172.133,323.600 172.800 C 323.600 173.244,323.867 173.600,324.200 173.600 C 324.530 173.600,324.800 173.870,324.800 174.200 C 324.800 174.533,325.156 174.800,325.600 174.800 C 326.133 174.800,326.400 175.067,326.400 175.600 C 326.400 176.133,326.667 176.400,327.200 176.400 C 327.733 176.400,328.000 176.667,328.000 177.200 C 328.000 177.733,328.267 178.000,328.800 178.000 C 329.467 178.000,329.600 178.267,329.600 179.600 C 329.600 180.933,329.733 181.200,330.400 181.200 C 331.111 181.200,331.200 181.467,331.200 183.600 C 331.200 185.733,331.289 186.000,332.000 186.000 C 332.785 186.000,332.800 186.267,332.800 200.000 C 332.800 213.733,332.815 214.000,333.600 214.000 C 334.133 214.000,334.400 214.267,334.400 214.800 C 334.400 215.333,334.667 215.600,335.200 215.600 C 335.733 215.600,336.000 215.867,336.000 216.400 C 336.000 216.933,336.267 217.200,336.800 217.200 C 337.333 217.200,337.600 217.467,337.600 218.000 C 337.600 218.533,337.867 218.800,338.400 218.800 C 338.933 218.800,339.200 218.533,339.200 218.000 C 339.200 217.467,339.467 217.200,340.000 217.200 C 340.533 217.200,340.800 216.933,340.800 216.400 C 340.800 215.956,341.067 215.600,341.400 215.600 C 341.733 215.600,342.000 215.244,342.000 214.800 C 342.000 214.267,342.267 214.000,342.800 214.000 C 343.596 214.000,343.600 213.733,343.600 163.200 C 343.600 112.667,343.596 112.400,342.800 112.400 C 342.267 112.400,342.000 112.133,342.000 111.600 C 342.000 111.156,341.733 110.800,341.400 110.800 C 341.067 110.800,340.800 110.444,340.800 110.000 C 340.800 109.467,340.533 109.200,340.000 109.200 C 339.556 109.200,339.200 108.933,339.200 108.600 C 339.200 108.068,323.556 108.000,200.800 108.000 C 78.044 108.000,62.400 108.068,62.400 108.600 M390.719 112.698 C 392.544 112.772,395.424 112.772,397.119 112.697 C 398.814 112.622,397.320 112.561,393.800 112.562 C 390.280 112.562,388.894 112.624,390.719 112.698 M315.600 119.600 C 315.600 120.311,315.867 120.400,318.000 120.400 C 320.133 120.400,320.400 120.489,320.400 121.200 C 320.400 121.867,320.667 122.000,322.000 122.000 C 323.333 122.000,323.600 122.133,323.600 122.800 C 323.600 123.244,323.867 123.600,324.200 123.600 C 324.530 123.600,324.800 123.870,324.800 124.200 C 324.800 124.533,325.156 124.800,325.600 124.800 C 326.133 124.800,326.400 125.067,326.400 125.600 C 326.400 126.133,326.667 126.400,327.200 126.400 C 327.733 126.400,328.000 126.667,328.000 127.200 C 328.000 127.733,328.267 128.000,328.800 128.000 C 329.467 128.000,329.600 128.267,329.600 129.600 C 329.600 130.933,329.733 131.200,330.400 131.200 C 331.111 131.200,331.200 131.467,331.200 133.600 C 331.200 135.733,331.289 136.000,332.000 136.000 C 332.711 136.000,332.800 136.267,332.800 138.400 C 332.800 140.533,332.711 140.800,332.000 140.800 C 331.297 140.800,331.200 141.067,331.200 143.000 C 331.200 144.933,331.103 145.200,330.400 145.200 C 329.733 145.200,329.600 145.467,329.600 146.800 C 329.600 148.133,329.467 148.400,328.800 148.400 C 328.267 148.400,328.000 148.667,328.000 149.200 C 328.000 149.733,327.733 150.000,327.200 150.000 C 326.667 150.000,326.400 150.267,326.400 150.800 C 326.400 151.333,326.133 151.600,325.600 151.600 C 325.067 151.600,324.800 151.867,324.800 152.400 C 324.800 152.844,324.533 153.200,324.200 153.200 C 323.867 153.200,323.600 153.556,323.600 154.000 C 323.600 154.667,323.333 154.800,322.000 154.800 C 320.667 154.800,320.400 154.933,320.400 155.600 C 320.400 156.311,320.133 156.400,318.000 156.400 C 315.867 156.400,315.600 156.489,315.600 157.200 C 315.600 157.911,315.333 158.000,313.200 158.000 C 311.067 158.000,310.800 157.911,310.800 157.200 C 310.800 156.497,310.533 156.400,308.600 156.400 C 306.667 156.400,306.400 156.303,306.400 155.600 C 306.400 154.933,306.133 154.800,304.800 154.800 C 303.467 154.800,303.200 154.667,303.200 154.000 C 303.200 153.467,302.933 153.200,302.400 153.200 C 301.867 153.200,301.600 152.933,301.600 152.400 C 301.600 151.867,301.333 151.600,300.800 151.600 C 300.267 151.600,300.000 151.333,300.000 150.800 C 300.000 150.267,299.733 150.000,299.200 150.000 C 298.667 150.000,298.400 149.733,298.400 149.200 C 298.400 148.667,298.133 148.400,297.600 148.400 C 296.933 148.400,296.800 148.133,296.800 146.800 C 296.800 145.467,296.667 145.200,296.000 145.200 C 295.297 145.200,295.200 144.933,295.200 143.000 C 295.200 141.067,295.103 140.800,294.400 140.800 C 293.689 140.800,293.600 140.533,293.600 138.400 C 293.600 136.267,293.689 136.000,294.400 136.000 C 295.111 136.000,295.200 135.733,295.200 133.600 C 295.200 131.467,295.289 131.200,296.000 131.200 C 296.667 131.200,296.800 130.933,296.800 129.600 C 296.800 128.267,296.933 128.000,297.600 128.000 C 298.133 128.000,298.400 127.733,298.400 127.200 C 298.400 126.667,298.667 126.400,299.200 126.400 C 299.733 126.400,300.000 126.133,300.000 125.600 C 300.000 125.067,300.267 124.800,300.800 124.800 C 301.244 124.800,301.600 124.533,301.600 124.200 C 301.600 123.867,301.956 123.600,302.400 123.600 C 302.933 123.600,303.200 123.333,303.200 122.800 C 303.200 122.133,303.467 122.000,304.800 122.000 C 306.133 122.000,306.400 121.867,306.400 121.200 C 306.400 120.497,306.667 120.400,308.600 120.400 C 310.533 120.400,310.800 120.303,310.800 119.600 C 310.800 118.889,311.067 118.800,313.200 118.800 C 315.333 118.800,315.600 118.889,315.600 119.600 M112.400 208.600 C 112.400 208.933,112.044 209.200,111.600 209.200 C 111.067 209.200,110.800 209.467,110.800 210.000 C 110.800 210.533,110.533 210.800,110.000 210.800 C 109.467 210.800,109.200 211.067,109.200 211.600 C 109.200 212.044,108.933 212.400,108.600 212.400 C 108.069 212.400,108.000 221.089,108.000 288.200 C 108.000 355.311,108.069 364.000,108.600 364.000 C 108.933 364.000,109.200 364.356,109.200 364.800 C 109.200 365.333,109.467 365.600,110.000 365.600 C 110.533 365.600,110.800 365.867,110.800 366.400 C 110.800 366.933,111.067 367.200,111.600 367.200 C 112.133 367.200,112.400 367.467,112.400 368.000 C 112.400 368.798,112.667 368.800,200.800 368.800 C 288.933 368.800,289.200 368.798,289.200 368.000 C 289.200 367.467,289.467 367.200,290.000 367.200 C 290.533 367.200,290.800 366.933,290.800 366.400 C 290.800 365.956,291.067 365.600,291.400 365.600 C 291.733 365.600,292.000 365.244,292.000 364.800 C 292.000 364.267,292.267 364.000,292.800 364.000 C 293.597 364.000,293.600 363.733,293.600 288.200 C 293.600 212.667,293.597 212.400,292.800 212.400 C 292.267 212.400,292.000 212.133,292.000 211.600 C 292.000 211.156,291.733 210.800,291.400 210.800 C 291.067 210.800,290.800 210.444,290.800 210.000 C 290.800 209.467,290.533 209.200,290.000 209.200 C 289.556 209.200,289.200 208.933,289.200 208.600 C 289.200 208.068,279.111 208.000,200.800 208.000 C 122.489 208.000,112.400 208.068,112.400 208.600 M140.800 219.600 C 140.800 220.303,141.067 220.400,143.000 220.400 C 144.933 220.400,145.200 220.497,145.200 221.200 C 145.200 221.867,145.467 222.000,146.800 222.000 C 148.133 222.000,148.400 222.133,148.400 222.800 C 148.400 223.333,148.667 223.600,149.200 223.600 C 149.644 223.600,150.000 223.867,150.000 224.200 C 150.000 224.533,150.356 224.800,150.800 224.800 C 151.333 224.800,151.600 225.067,151.600 225.600 C 151.600 226.133,151.867 226.400,152.400 226.400 C 152.933 226.400,153.200 226.667,153.200 227.200 C 153.200 227.733,153.467 228.000,154.000 228.000 C 154.667 228.000,154.800 228.267,154.800 229.600 C 154.800 230.933,154.933 231.200,155.600 231.200 C 156.311 231.200,156.400 231.467,156.400 233.600 C 156.400 235.733,156.489 236.000,157.200 236.000 C 157.911 236.000,158.000 236.267,158.000 238.400 C 158.000 240.533,157.911 240.800,157.200 240.800 C 156.497 240.800,156.400 241.067,156.400 243.000 C 156.400 244.933,156.303 245.200,155.600 245.200 C 154.933 245.200,154.800 245.467,154.800 246.800 C 154.800 248.133,154.667 248.400,154.000 248.400 C 153.467 248.400,153.200 248.667,153.200 249.200 C 153.200 249.733,152.933 250.000,152.400 250.000 C 151.867 250.000,151.600 250.267,151.600 250.800 C 151.600 251.333,151.333 251.600,150.800 251.600 C 150.267 251.600,150.000 251.867,150.000 252.400 C 150.000 252.933,149.733 253.200,149.200 253.200 C 148.667 253.200,148.400 253.467,148.400 254.000 C 148.400 254.667,148.133 254.800,146.800 254.800 C 145.467 254.800,145.200 254.933,145.200 255.600 C 145.200 256.303,144.933 256.400,143.000 256.400 C 141.067 256.400,140.800 256.497,140.800 257.200 C 140.800 257.911,140.533 258.000,138.400 258.000 C 136.267 258.000,136.000 257.911,136.000 257.200 C 136.000 256.489,135.733 256.400,133.600 256.400 C 131.467 256.400,131.200 256.311,131.200 255.600 C 131.200 254.933,130.933 254.800,129.600 254.800 C 128.267 254.800,128.000 254.667,128.000 254.000 C 128.000 253.467,127.733 253.200,127.200 253.200 C 126.667 253.200,126.400 252.933,126.400 252.400 C 126.400 251.867,126.133 251.600,125.600 251.600 C 125.067 251.600,124.800 251.333,124.800 250.800 C 124.800 250.356,124.533 250.000,124.200 250.000 C 123.867 250.000,123.600 249.644,123.600 249.200 C 123.600 248.667,123.333 248.400,122.800 248.400 C 122.133 248.400,122.000 248.133,122.000 246.800 C 122.000 245.467,121.867 245.200,121.200 245.200 C 120.497 245.200,120.400 244.933,120.400 243.000 C 120.400 241.067,120.303 240.800,119.600 240.800 C 118.889 240.800,118.800 240.533,118.800 238.400 C 118.800 236.267,118.889 236.000,119.600 236.000 C 120.311 236.000,120.400 235.733,120.400 233.600 C 120.400 231.467,120.489 231.200,121.200 231.200 C 121.867 231.200,122.000 230.933,122.000 229.600 C 122.000 228.267,122.133 228.000,122.800 228.000 C 123.333 228.000,123.600 227.733,123.600 227.200 C 123.600 226.756,123.867 226.400,124.200 226.400 C 124.533 226.400,124.800 226.044,124.800 225.600 C 124.800 225.067,125.067 224.800,125.600 224.800 C 126.044 224.800,126.400 224.533,126.400 224.200 C 126.400 223.867,126.756 223.600,127.200 223.600 C 127.733 223.600,128.000 223.333,128.000 222.800 C 128.000 222.133,128.267 222.000,129.600 222.000 C 130.933 222.000,131.200 221.867,131.200 221.200 C 131.200 220.489,131.467 220.400,133.600 220.400 C 135.733 220.400,136.000 220.311,136.000 219.600 C 136.000 218.889,136.267 218.800,138.400 218.800 C 140.533 218.800,140.800 218.889,140.800 219.600 M265.600 219.600 C 265.600 220.311,265.867 220.400,268.000 220.400 C 270.133 220.400,270.400 220.489,270.400 221.200 C 270.400 221.867,270.667 222.000,272.000 222.000 C 273.333 222.000,273.600 222.133,273.600 222.800 C 273.600 223.244,273.867 223.600,274.200 223.600 C 274.530 223.600,274.800 223.870,274.800 224.200 C 274.800 224.533,275.156 224.800,275.600 224.800 C 276.133 224.800,276.400 225.067,276.400 225.600 C 276.400 226.133,276.667 226.400,277.200 226.400 C 277.733 226.400,278.000 226.667,278.000 227.200 C 278.000 227.733,278.267 228.000,278.800 228.000 C 279.467 228.000,279.600 228.267,279.600 229.600 C 279.600 230.933,279.733 231.200,280.400 231.200 C 281.111 231.200,281.200 231.467,281.200 233.600 C 281.200 235.733,281.289 236.000,282.000 236.000 C 282.711 236.000,282.800 236.267,282.800 238.400 C 282.800 240.533,282.711 240.800,282.000 240.800 C 281.297 240.800,281.200 241.067,281.200 243.000 C 281.200 244.933,281.103 245.200,280.400 245.200 C 279.733 245.200,279.600 245.467,279.600 246.800 C 279.600 248.133,279.467 248.400,278.800 248.400 C 278.267 248.400,278.000 248.667,278.000 249.200 C 278.000 249.733,277.733 250.000,277.200 250.000 C 276.667 250.000,276.400 250.267,276.400 250.800 C 276.400 251.333,276.133 251.600,275.600 251.600 C 275.067 251.600,274.800 251.867,274.800 252.400 C 274.800 252.844,274.533 253.200,274.200 253.200 C 273.867 253.200,273.600 253.556,273.600 254.000 C 273.600 254.667,273.333 254.800,272.000 254.800 C 270.667 254.800,270.400 254.933,270.400 255.600 C 270.400 256.311,270.133 256.400,268.000 256.400 C 265.867 256.400,265.600 256.489,265.600 257.200 C 265.600 257.911,265.333 258.000,263.200 258.000 C 261.067 258.000,260.800 257.911,260.800 257.200 C 260.800 256.497,260.533 256.400,258.600 256.400 C 256.667 256.400,256.400 256.303,256.400 255.600 C 256.400 254.933,256.133 254.800,254.800 254.800 C 253.467 254.800,253.200 254.667,253.200 254.000 C 253.200 253.467,252.933 253.200,252.400 253.200 C 251.867 253.200,251.600 252.933,251.600 252.400 C 251.600 251.867,251.333 251.600,250.800 251.600 C 250.267 251.600,250.000 251.333,250.000 250.800 C 250.000 250.267,249.733 250.000,249.200 250.000 C 248.667 250.000,248.400 249.733,248.400 249.200 C 248.400 248.667,248.133 248.400,247.600 248.400 C 246.933 248.400,246.800 248.133,246.800 246.800 C 246.800 245.467,246.667 245.200,246.000 245.200 C 245.297 245.200,245.200 244.933,245.200 243.000 C 245.200 241.067,245.103 240.800,244.400 240.800 C 243.689 240.800,243.600 240.533,243.600 238.400 C 243.600 236.267,243.689 236.000,244.400 236.000 C 245.111 236.000,245.200 235.733,245.200 233.600 C 245.200 231.467,245.289 231.200,246.000 231.200 C 246.667 231.200,246.800 230.933,246.800 229.600 C 246.800 228.267,246.933 228.000,247.600 228.000 C 248.133 228.000,248.400 227.733,248.400 227.200 C 248.400 226.667,248.667 226.400,249.200 226.400 C 249.733 226.400,250.000 226.133,250.000 225.600 C 250.000 225.067,250.267 224.800,250.800 224.800 C 251.244 224.800,251.600 224.533,251.600 224.200 C 251.600 223.867,251.956 223.600,252.400 223.600 C 252.933 223.600,253.200 223.333,253.200 222.800 C 253.200 222.133,253.467 222.000,254.800 222.000 C 256.133 222.000,256.400 221.867,256.400 221.200 C 256.400 220.497,256.667 220.400,258.600 220.400 C 260.533 220.400,260.800 220.303,260.800 219.600 C 260.800 218.889,261.067 218.800,263.200 218.800 C 265.333 218.800,265.600 218.889,265.600 219.600 M12.901 256.200 C 12.905 257.080,12.987 257.393,13.083 256.895 C 13.179 256.398,13.175 255.678,13.075 255.295 C 12.975 254.913,12.896 255.320,12.901 256.200 M13.201 258.920 C 13.200 259.832,15.664 262.400,16.540 262.400 C 17.670 262.400,17.264 261.734,15.900 261.349 C 15.006 261.097,14.382 260.548,13.901 259.591 C 13.475 258.745,13.201 258.482,13.201 258.920 M386.119 259.987 C 386.006 260.419,385.573 260.882,385.157 261.014 C 384.151 261.333,384.184 262.400,385.200 262.400 C 385.733 262.400,386.000 262.133,386.000 261.600 C 386.000 261.067,386.267 260.800,386.800 260.800 C 387.333 260.800,387.600 260.533,387.600 260.000 C 387.600 258.958,386.391 258.948,386.119 259.987 M140.800 269.600 C 140.800 270.303,141.067 270.400,143.000 270.400 C 144.933 270.400,145.200 270.497,145.200 271.200 C 145.200 271.867,145.467 272.000,146.800 272.000 C 148.133 272.000,148.400 272.133,148.400 272.800 C 148.400 273.333,148.667 273.600,149.200 273.600 C 149.644 273.600,150.000 273.867,150.000 274.200 C 150.000 274.533,150.356 274.800,150.800 274.800 C 151.333 274.800,151.600 275.067,151.600 275.600 C 151.600 276.133,151.867 276.400,152.400 276.400 C 152.933 276.400,153.200 276.667,153.200 277.200 C 153.200 277.733,153.467 278.000,154.000 278.000 C 154.667 278.000,154.800 278.267,154.800 279.600 C 154.800 280.933,154.933 281.200,155.600 281.200 C 156.311 281.200,156.400 281.467,156.400 283.600 C 156.400 285.733,156.489 286.000,157.200 286.000 C 157.911 286.000,158.000 286.267,158.000 288.400 C 158.000 290.533,157.911 290.800,157.200 290.800 C 156.497 290.800,156.400 291.067,156.400 293.000 C 156.400 294.933,156.303 295.200,155.600 295.200 C 154.933 295.200,154.800 295.467,154.800 296.800 C 154.800 298.133,154.667 298.400,154.000 298.400 C 153.467 298.400,153.200 298.667,153.200 299.200 C 153.200 299.733,152.933 300.000,152.400 300.000 C 151.867 300.000,151.600 300.267,151.600 300.800 C 151.600 301.333,151.333 301.600,150.800 301.600 C 150.267 301.600,150.000 301.867,150.000 302.400 C 150.000 302.933,149.733 303.200,149.200 303.200 C 148.667 303.200,148.400 303.467,148.400 304.000 C 148.400 304.667,148.133 304.800,146.800 304.800 C 145.467 304.800,145.200 304.933,145.200 305.600 C 145.200 306.303,144.933 306.400,143.000 306.400 C 141.067 306.400,140.800 306.497,140.800 307.200 C 140.800 307.911,140.533 308.000,138.400 308.000 C 136.267 308.000,136.000 307.911,136.000 307.200 C 136.000 306.489,135.733 306.400,133.600 306.400 C 131.467 306.400,131.200 306.311,131.200 305.600 C 131.200 304.933,130.933 304.800,129.600 304.800 C 128.267 304.800,128.000 304.667,128.000 304.000 C 128.000 303.467,127.733 303.200,127.200 303.200 C 126.667 303.200,126.400 302.933,126.400 302.400 C 126.400 301.867,126.133 301.600,125.600 301.600 C 125.067 301.600,124.800 301.333,124.800 300.800 C 124.800 300.356,124.533 300.000,124.200 300.000 C 123.867 300.000,123.600 299.644,123.600 299.200 C 123.600 298.667,123.333 298.400,122.800 298.400 C 122.133 298.400,122.000 298.133,122.000 296.800 C 122.000 295.467,121.867 295.200,121.200 295.200 C 120.497 295.200,120.400 294.933,120.400 293.000 C 120.400 291.067,120.303 290.800,119.600 290.800 C 118.889 290.800,118.800 290.533,118.800 288.400 C 118.800 286.267,118.889 286.000,119.600 286.000 C 120.311 286.000,120.400 285.733,120.400 283.600 C 120.400 281.467,120.489 281.200,121.200 281.200 C 121.867 281.200,122.000 280.933,122.000 279.600 C 122.000 278.267,122.133 278.000,122.800 278.000 C 123.333 278.000,123.600 277.733,123.600 277.200 C 123.600 276.756,123.867 276.400,124.200 276.400 C 124.533 276.400,124.800 276.044,124.800 275.600 C 124.800 275.067,125.067 274.800,125.600 274.800 C 126.044 274.800,126.400 274.533,126.400 274.200 C 126.400 273.867,126.756 273.600,127.200 273.600 C 127.733 273.600,128.000 273.333,128.000 272.800 C 128.000 272.133,128.267 272.000,129.600 272.000 C 130.933 272.000,131.200 271.867,131.200 271.200 C 131.200 270.489,131.467 270.400,133.600 270.400 C 135.733 270.400,136.000 270.311,136.000 269.600 C 136.000 268.889,136.267 268.800,138.400 268.800 C 140.533 268.800,140.800 268.889,140.800 269.600 M265.600 269.600 C 265.600 270.311,265.867 270.400,268.000 270.400 C 270.133 270.400,270.400 270.489,270.400 271.200 C 270.400 271.867,270.667 272.000,272.000 272.000 C 273.333 272.000,273.600 272.133,273.600 272.800 C 273.600 273.244,273.867 273.600,274.200 273.600 C 274.530 273.600,274.800 273.870,274.800 274.200 C 274.800 274.533,275.156 274.800,275.600 274.800 C 276.133 274.800,276.400 275.067,276.400 275.600 C 276.400 276.133,276.667 276.400,277.200 276.400 C 277.733 276.400,278.000 276.667,278.000 277.200 C 278.000 277.733,278.267 278.000,278.800 278.000 C 279.467 278.000,279.600 278.267,279.600 279.600 C 279.600 280.933,279.733 281.200,280.400 281.200 C 281.111 281.200,281.200 281.467,281.200 283.600 C 281.200 285.733,281.289 286.000,282.000 286.000 C 282.711 286.000,282.800 286.267,282.800 288.400 C 282.800 290.533,282.711 290.800,282.000 290.800 C 281.297 290.800,281.200 291.067,281.200 293.000 C 281.200 294.933,281.103 295.200,280.400 295.200 C 279.733 295.200,279.600 295.467,279.600 296.800 C 279.600 298.133,279.467 298.400,278.800 298.400 C 278.267 298.400,278.000 298.667,278.000 299.200 C 278.000 299.733,277.733 300.000,277.200 300.000 C 276.667 300.000,276.400 300.267,276.400 300.800 C 276.400 301.333,276.133 301.600,275.600 301.600 C 275.067 301.600,274.800 301.867,274.800 302.400 C 274.800 302.844,274.533 303.200,274.200 303.200 C 273.867 303.200,273.600 303.556,273.600 304.000 C 273.600 304.667,273.333 304.800,272.000 304.800 C 270.667 304.800,270.400 304.933,270.400 305.600 C 270.400 306.311,270.133 306.400,268.000 306.400 C 265.867 306.400,265.600 306.489,265.600 307.200 C 265.600 307.911,265.333 308.000,263.200 308.000 C 261.067 308.000,260.800 307.911,260.800 307.200 C 260.800 306.497,260.533 306.400,258.600 306.400 C 256.667 306.400,256.400 306.303,256.400 305.600 C 256.400 304.933,256.133 304.800,254.800 304.800 C 253.467 304.800,253.200 304.667,253.200 304.000 C 253.200 303.467,252.933 303.200,252.400 303.200 C 251.867 303.200,251.600 302.933,251.600 302.400 C 251.600 301.867,251.333 301.600,250.800 301.600 C 250.267 301.600,250.000 301.333,250.000 300.800 C 250.000 300.267,249.733 300.000,249.200 300.000 C 248.667 300.000,248.400 299.733,248.400 299.200 C 248.400 298.667,248.133 298.400,247.600 298.400 C 246.933 298.400,246.800 298.133,246.800 296.800 C 246.800 295.467,246.667 295.200,246.000 295.200 C 245.297 295.200,245.200 294.933,245.200 293.000 C 245.200 291.067,245.103 290.800,244.400 290.800 C 243.689 290.800,243.600 290.533,243.600 288.400 C 243.600 286.267,243.689 286.000,244.400 286.000 C 245.111 286.000,245.200 285.733,245.200 283.600 C 245.200 281.467,245.289 281.200,246.000 281.200 C 246.667 281.200,246.800 280.933,246.800 279.600 C 246.800 278.267,246.933 278.000,247.600 278.000 C 248.133 278.000,248.400 277.733,248.400 277.200 C 248.400 276.667,248.667 276.400,249.200 276.400 C 249.733 276.400,250.000 276.133,250.000 275.600 C 250.000 275.067,250.267 274.800,250.800 274.800 C 251.244 274.800,251.600 274.533,251.600 274.200 C 251.600 273.867,251.956 273.600,252.400 273.600 C 252.933 273.600,253.200 273.333,253.200 272.800 C 253.200 272.133,253.467 272.000,254.800 272.000 C 256.133 272.000,256.400 271.867,256.400 271.200 C 256.400 270.497,256.667 270.400,258.600 270.400 C 260.533 270.400,260.800 270.303,260.800 269.600 C 260.800 268.889,261.067 268.800,263.200 268.800 C 265.333 268.800,265.600 268.889,265.600 269.600 M37.724 277.000 C 37.726 278.320,37.801 278.812,37.890 278.093 C 37.979 277.374,37.977 276.294,37.886 275.693 C 37.795 275.092,37.722 275.680,37.724 277.000 M38.187 283.387 C 38.370 284.908,40.565 287.600,41.622 287.600 C 42.495 287.600,41.894 286.814,40.500 286.133 C 39.278 285.536,38.907 285.067,38.498 283.600 L 37.996 281.800 38.187 283.387 M361.014 285.157 C 360.882 285.573,360.419 286.006,359.987 286.119 C 358.948 286.391,358.958 287.600,360.000 287.600 C 360.533 287.600,360.800 287.333,360.800 286.800 C 360.800 286.267,361.067 286.000,361.600 286.000 C 362.133 286.000,362.400 285.733,362.400 285.200 C 362.400 284.184,361.333 284.151,361.014 285.157 M62.595 343.800 C 62.595 374.820,62.642 387.569,62.700 372.131 C 62.758 356.693,62.758 331.313,62.700 315.731 C 62.642 300.149,62.595 312.780,62.595 343.800 M140.800 319.600 C 140.800 320.303,141.067 320.400,143.000 320.400 C 144.933 320.400,145.200 320.497,145.200 321.200 C 145.200 321.867,145.467 322.000,146.800 322.000 C 148.133 322.000,148.400 322.133,148.400 322.800 C 148.400 323.333,148.667 323.600,149.200 323.600 C 149.644 323.600,150.000 323.867,150.000 324.200 C 150.000 324.533,150.356 324.800,150.800 324.800 C 151.333 324.800,151.600 325.067,151.600 325.600 C 151.600 326.133,151.867 326.400,152.400 326.400 C 152.933 326.400,153.200 326.667,153.200 327.200 C 153.200 327.733,153.467 328.000,154.000 328.000 C 154.667 328.000,154.800 328.267,154.800 329.600 C 154.800 330.933,154.933 331.200,155.600 331.200 C 156.311 331.200,156.400 331.467,156.400 333.600 C 156.400 335.733,156.489 336.000,157.200 336.000 C 157.911 336.000,158.000 336.267,158.000 338.400 C 158.000 340.533,157.911 340.800,157.200 340.800 C 156.497 340.800,156.400 341.067,156.400 343.000 C 156.400 344.933,156.303 345.200,155.600 345.200 C 154.933 345.200,154.800 345.467,154.800 346.800 C 154.800 348.133,154.667 348.400,154.000 348.400 C 153.467 348.400,153.200 348.667,153.200 349.200 C 153.200 349.733,152.933 350.000,152.400 350.000 C 151.867 350.000,151.600 350.267,151.600 350.800 C 151.600 351.333,151.333 351.600,150.800 351.600 C 150.267 351.600,150.000 351.867,150.000 352.400 C 150.000 352.933,149.733 353.200,149.200 353.200 C 148.667 353.200,148.400 353.467,148.400 354.000 C 148.400 354.667,148.133 354.800,146.800 354.800 C 145.467 354.800,145.200 354.933,145.200 355.600 C 145.200 356.303,144.933 356.400,143.000 356.400 C 141.067 356.400,140.800 356.497,140.800 357.200 C 140.800 357.911,140.533 358.000,138.400 358.000 C 136.267 358.000,136.000 357.911,136.000 357.200 C 136.000 356.489,135.733 356.400,133.600 356.400 C 131.467 356.400,131.200 356.311,131.200 355.600 C 131.200 354.933,130.933 354.800,129.600 354.800 C 128.267 354.800,128.000 354.667,128.000 354.000 C 128.000 353.467,127.733 353.200,127.200 353.200 C 126.667 353.200,126.400 352.933,126.400 352.400 C 126.400 351.867,126.133 351.600,125.600 351.600 C 125.067 351.600,124.800 351.333,124.800 350.800 C 124.800 350.356,124.533 350.000,124.200 350.000 C 123.867 350.000,123.600 349.644,123.600 349.200 C 123.600 348.667,123.333 348.400,122.800 348.400 C 122.133 348.400,122.000 348.133,122.000 346.800 C 122.000 345.467,121.867 345.200,121.200 345.200 C 120.497 345.200,120.400 344.933,120.400 343.000 C 120.400 341.067,120.303 340.800,119.600 340.800 C 118.889 340.800,118.800 340.533,118.800 338.400 C 118.800 336.267,118.889 336.000,119.600 336.000 C 120.311 336.000,120.400 335.733,120.400 333.600 C 120.400 331.467,120.489 331.200,121.200 331.200 C 121.867 331.200,122.000 330.933,122.000 329.600 C 122.000 328.267,122.133 328.000,122.800 328.000 C 123.333 328.000,123.600 327.733,123.600 327.200 C 123.600 326.756,123.867 326.400,124.200 326.400 C 124.533 326.400,124.800 326.044,124.800 325.600 C 124.800 325.067,125.067 324.800,125.600 324.800 C 126.044 324.800,126.400 324.533,126.400 324.200 C 126.400 323.867,126.756 323.600,127.200 323.600 C 127.733 323.600,128.000 323.333,128.000 322.800 C 128.000 322.133,128.267 322.000,129.600 322.000 C 130.933 322.000,131.200 321.867,131.200 321.200 C 131.200 320.489,131.467 320.400,133.600 320.400 C 135.733 320.400,136.000 320.311,136.000 319.600 C 136.000 318.889,136.267 318.800,138.400 318.800 C 140.533 318.800,140.800 318.889,140.800 319.600 M265.600 319.600 C 265.600 320.311,265.867 320.400,268.000 320.400 C 270.133 320.400,270.400 320.489,270.400 321.200 C 270.400 321.867,270.667 322.000,272.000 322.000 C 273.333 322.000,273.600 322.133,273.600 322.800 C 273.600 323.244,273.867 323.600,274.200 323.600 C 274.530 323.600,274.800 323.870,274.800 324.200 C 274.800 324.533,275.156 324.800,275.600 324.800 C 276.133 324.800,276.400 325.067,276.400 325.600 C 276.400 326.133,276.667 326.400,277.200 326.400 C 277.733 326.400,278.000 326.667,278.000 327.200 C 278.000 327.733,278.267 328.000,278.800 328.000 C 279.467 328.000,279.600 328.267,279.600 329.600 C 279.600 330.933,279.733 331.200,280.400 331.200 C 281.111 331.200,281.200 331.467,281.200 333.600 C 281.200 335.733,281.289 336.000,282.000 336.000 C 282.711 336.000,282.800 336.267,282.800 338.400 C 282.800 340.533,282.711 340.800,282.000 340.800 C 281.297 340.800,281.200 341.067,281.200 343.000 C 281.200 344.933,281.103 345.200,280.400 345.200 C 279.733 345.200,279.600 345.467,279.600 346.800 C 279.600 348.133,279.467 348.400,278.800 348.400 C 278.267 348.400,278.000 348.667,278.000 349.200 C 278.000 349.733,277.733 350.000,277.200 350.000 C 276.667 350.000,276.400 350.267,276.400 350.800 C 276.400 351.333,276.133 351.600,275.600 351.600 C 275.067 351.600,274.800 351.867,274.800 352.400 C 274.800 352.844,274.533 353.200,274.200 353.200 C 273.867 353.200,273.600 353.556,273.600 354.000 C 273.600 354.667,273.333 354.800,272.000 354.800 C 270.667 354.800,270.400 354.933,270.400 355.600 C 270.400 356.311,270.133 356.400,268.000 356.400 C 265.867 356.400,265.600 356.489,265.600 357.200 C 265.600 357.911,265.333 358.000,263.200 358.000 C 261.067 358.000,260.800 357.911,260.800 357.200 C 260.800 356.497,260.533 356.400,258.600 356.400 C 256.667 356.400,256.400 356.303,256.400 355.600 C 256.400 354.933,256.133 354.800,254.800 354.800 C 253.467 354.800,253.200 354.667,253.200 354.000 C 253.200 353.467,252.933 353.200,252.400 353.200 C 251.867 353.200,251.600 352.933,251.600 352.400 C 251.600 351.867,251.333 351.600,250.800 351.600 C 250.267 351.600,250.000 351.333,250.000 350.800 C 250.000 350.267,249.733 350.000,249.200 350.000 C 248.667 350.000,248.400 349.733,248.400 349.200 C 248.400 348.667,248.133 348.400,247.600 348.400 C 246.933 348.400,246.800 348.133,246.800 346.800 C 246.800 345.467,246.667 345.200,246.000 345.200 C 245.297 345.200,245.200 344.933,245.200 343.000 C 245.200 341.067,245.103 340.800,244.400 340.800 C 243.689 340.800,243.600 340.533,243.600 338.400 C 243.600 336.267,243.689 336.000,244.400 336.000 C 245.111 336.000,245.200 335.733,245.200 333.600 C 245.200 331.467,245.289 331.200,246.000 331.200 C 246.667 331.200,246.800 330.933,246.800 329.600 C 246.800 328.267,246.933 328.000,247.600 328.000 C 248.133 328.000,248.400 327.733,248.400 327.200 C 248.400 326.667,248.667 326.400,249.200 326.400 C 249.733 326.400,250.000 326.133,250.000 325.600 C 250.000 325.067,250.267 324.800,250.800 324.800 C 251.244 324.800,251.600 324.533,251.600 324.200 C 251.600 323.867,251.956 323.600,252.400 323.600 C 252.933 323.600,253.200 323.333,253.200 322.800 C 253.200 322.133,253.467 322.000,254.800 322.000 C 256.133 322.000,256.400 321.867,256.400 321.200 C 256.400 320.497,256.667 320.400,258.600 320.400 C 260.533 320.400,260.800 320.303,260.800 319.600 C 260.800 318.889,261.067 318.800,263.200 318.800 C 265.333 318.800,265.600 318.889,265.600 319.600 " stroke="none" fill="#fcfcfc" fill-rule="evenodd"></path><path id="path1" d="M62.702 31.300 L 62.600 62.600 42.200 62.666 C 10.434 62.768,12.732 62.386,12.862 67.547 C 12.898 69.006,12.914 111.420,12.896 161.800 C 12.857 268.945,12.784 260.706,13.785 261.438 C 15.164 262.447,15.567 262.028,14.369 260.831 C 13.726 260.188,13.200 259.333,13.201 258.931 C 13.201 258.474,13.464 258.722,13.901 259.591 C 14.382 260.548,15.006 261.097,15.900 261.349 C 16.615 261.551,17.200 261.870,17.200 262.058 C 17.200 262.246,21.790 262.400,27.400 262.400 L 37.600 262.400 37.700 268.700 C 37.755 272.165,37.770 276.890,37.733 279.200 C 37.696 281.510,37.767 283.040,37.890 282.600 C 38.058 282.002,38.227 282.255,38.557 283.600 C 38.925 285.096,39.254 285.524,40.500 286.133 C 41.325 286.536,42.000 287.031,42.000 287.233 C 42.000 287.446,46.356 287.600,52.400 287.600 L 62.800 287.600 62.800 343.800 L 62.800 400.000 200.200 400.000 L 337.600 400.000 337.600 343.800 L 337.600 287.600 348.353 287.600 C 358.770 287.600,359.113 287.575,359.316 286.800 C 359.530 285.981,360.800 285.659,360.800 286.424 C 360.800 286.657,360.999 286.724,361.243 286.574 C 361.564 286.375,361.560 286.223,361.229 286.018 C 360.640 285.654,361.115 284.400,361.843 284.400 C 362.306 284.400,362.400 282.536,362.400 273.400 L 362.400 262.400 373.400 262.400 C 382.536 262.400,384.400 262.306,384.400 261.843 C 384.400 261.115,385.654 260.640,386.018 261.229 C 386.223 261.560,386.375 261.564,386.574 261.243 C 386.724 260.999,386.657 260.800,386.424 260.800 C 385.659 260.800,385.981 259.530,386.800 259.316 C 387.588 259.110,387.600 258.770,387.600 235.753 L 387.600 212.400 393.800 212.400 L 400.000 212.400 400.000 162.600 L 400.000 112.800 393.800 112.800 L 387.600 112.800 387.600 90.043 C 387.600 70.183,387.524 67.256,387.000 67.055 C 386.670 66.929,386.400 66.491,386.400 66.082 C 386.400 65.213,384.949 63.764,383.800 63.486 C 383.103 63.318,383.121 63.287,383.940 63.246 C 384.516 63.218,385.328 63.680,386.040 64.442 C 387.328 65.821,387.638 65.430,386.435 63.944 C 385.459 62.738,384.654 62.706,357.900 62.795 L 337.600 62.863 337.600 31.431 L 337.600 0.000 200.202 0.000 L 62.805 0.000 62.702 31.300 M114.000 24.200 C 114.000 24.633,114.444 24.800,115.600 24.800 C 116.933 24.800,117.200 24.933,117.200 25.600 C 117.200 26.267,117.467 26.400,118.800 26.400 C 120.133 26.400,120.400 26.533,120.400 27.200 C 120.400 27.733,120.667 28.000,121.200 28.000 C 121.733 28.000,122.000 28.267,122.000 28.800 C 122.000 29.333,122.267 29.600,122.800 29.600 C 123.333 29.600,123.600 29.867,123.600 30.400 C 123.600 30.844,123.867 31.200,124.200 31.200 C 124.633 31.200,124.800 31.644,124.800 32.800 C 124.800 34.133,124.933 34.400,125.600 34.400 C 126.267 34.400,126.400 34.667,126.400 36.000 C 126.400 37.333,126.533 37.600,127.200 37.600 C 127.867 37.600,128.000 37.867,128.000 39.200 C 128.000 40.533,128.133 40.800,128.800 40.800 C 129.244 40.800,129.600 41.067,129.600 41.400 C 129.600 41.733,129.956 42.000,130.400 42.000 C 130.933 42.000,131.200 42.267,131.200 42.800 C 131.200 43.333,131.467 43.600,132.000 43.600 C 132.533 43.600,132.800 43.867,132.800 44.400 C 132.800 44.933,133.067 45.200,133.600 45.200 C 134.133 45.200,134.400 45.467,134.400 46.000 C 134.400 46.533,134.667 46.800,135.200 46.800 C 135.733 46.800,136.000 47.067,136.000 47.600 C 136.000 48.311,136.267 48.400,138.400 48.400 C 140.533 48.400,140.800 48.311,140.800 47.600 C 140.800 47.156,141.067 46.800,141.400 46.800 C 141.733 46.800,142.000 46.444,142.000 46.000 C 142.000 45.467,142.267 45.200,142.800 45.200 C 143.333 45.200,143.600 44.933,143.600 44.400 C 143.600 43.867,143.867 43.600,144.400 43.600 C 144.933 43.600,145.200 43.333,145.200 42.800 C 145.200 42.267,145.467 42.000,146.000 42.000 C 146.444 42.000,146.800 41.733,146.800 41.400 C 146.800 41.067,147.156 40.800,147.600 40.800 C 148.267 40.800,148.400 40.533,148.400 39.200 C 148.400 37.867,148.533 37.600,149.200 37.600 C 149.867 37.600,150.000 37.333,150.000 36.000 C 150.000 34.667,150.133 34.400,150.800 34.400 C 151.467 34.400,151.600 34.133,151.600 32.800 C 151.600 31.467,151.733 31.200,152.400 31.200 C 152.933 31.200,153.200 30.933,153.200 30.400 C 153.200 29.867,153.467 29.600,154.000 29.600 C 154.533 29.600,154.800 29.333,154.800 28.800 C 154.800 28.267,155.067 28.000,155.600 28.000 C 156.133 28.000,156.400 27.733,156.400 27.200 C 156.400 26.552,156.667 26.400,157.800 26.400 C 158.933 26.400,159.200 26.248,159.200 25.600 C 159.200 24.933,159.467 24.800,160.800 24.800 C 161.956 24.800,162.400 24.633,162.400 24.200 C 162.400 23.671,166.933 23.600,200.800 23.600 C 234.667 23.600,239.200 23.671,239.200 24.200 C 239.200 24.619,239.622 24.800,240.600 24.800 C 241.733 24.800,242.000 24.952,242.000 25.600 C 242.000 26.267,242.267 26.400,243.600 26.400 C 244.933 26.400,245.200 26.533,245.200 27.200 C 245.200 27.733,245.467 28.000,246.000 28.000 C 246.533 28.000,246.800 28.267,246.800 28.800 C 246.800 29.333,247.067 29.600,247.600 29.600 C 248.133 29.600,248.400 29.867,248.400 30.400 C 248.400 30.933,248.667 31.200,249.200 31.200 C 249.867 31.200,250.000 31.467,250.000 32.800 C 250.000 34.133,250.133 34.400,250.800 34.400 C 251.467 34.400,251.600 34.667,251.600 36.000 C 251.600 37.333,251.733 37.600,252.400 37.600 C 253.067 37.600,253.200 37.867,253.200 39.200 C 253.200 40.533,253.333 40.800,254.000 40.800 C 254.444 40.800,254.800 41.067,254.800 41.400 C 254.800 41.733,255.156 42.000,255.600 42.000 C 256.133 42.000,256.400 42.267,256.400 42.800 C 256.400 43.333,256.667 43.600,257.200 43.600 C 257.733 43.600,258.000 43.867,258.000 44.400 C 258.000 44.844,258.267 45.200,258.600 45.200 C 258.933 45.200,259.200 45.556,259.200 46.000 C 259.200 46.533,259.467 46.800,260.000 46.800 C 260.533 46.800,260.800 47.067,260.800 47.600 C 260.800 48.311,261.067 48.400,263.200 48.400 C 265.333 48.400,265.600 48.311,265.600 47.600 C 265.600 47.067,265.867 46.800,266.400 46.800 C 266.933 46.800,267.200 46.533,267.200 46.000 C 267.200 45.467,267.467 45.200,268.000 45.200 C 268.533 45.200,268.800 44.933,268.800 44.400 C 268.800 43.867,269.067 43.600,269.600 43.600 C 270.133 43.600,270.400 43.333,270.400 42.800 C 270.400 42.267,270.667 42.000,271.200 42.000 C 271.644 42.000,272.000 41.733,272.000 41.400 C 272.000 41.067,272.356 40.800,272.800 40.800 C 273.467 40.800,273.600 40.533,273.600 39.200 C 273.600 38.044,273.767 37.600,274.200 37.600 C 274.633 37.600,274.800 37.156,274.800 36.000 C 274.800 34.667,274.933 34.400,275.600 34.400 C 276.267 34.400,276.400 34.133,276.400 32.800 C 276.400 31.467,276.533 31.200,277.200 31.200 C 277.733 31.200,278.000 30.933,278.000 30.400 C 278.000 29.867,278.267 29.600,278.800 29.600 C 279.333 29.600,279.600 29.333,279.600 28.800 C 279.600 28.267,279.867 28.000,280.400 28.000 C 280.933 28.000,281.200 27.733,281.200 27.200 C 281.200 26.533,281.467 26.400,282.800 26.400 C 284.133 26.400,284.400 26.267,284.400 25.600 C 284.400 24.933,284.667 24.800,286.000 24.800 C 287.156 24.800,287.600 24.633,287.600 24.200 C 287.600 23.867,287.956 23.600,288.400 23.600 C 288.844 23.600,289.200 23.867,289.200 24.200 C 289.200 24.619,289.622 24.800,290.600 24.800 C 291.733 24.800,292.000 24.952,292.000 25.600 C 292.000 26.267,292.267 26.400,293.600 26.400 C 294.933 26.400,295.200 26.533,295.200 27.200 C 295.200 27.733,295.467 28.000,296.000 28.000 C 296.533 28.000,296.800 28.267,296.800 28.800 C 296.800 29.333,297.067 29.600,297.600 29.600 C 298.133 29.600,298.400 29.867,298.400 30.400 C 298.400 30.933,298.667 31.200,299.200 31.200 C 299.867 31.200,300.000 31.467,300.000 32.800 C 300.000 34.133,300.133 34.400,300.800 34.400 C 301.467 34.400,301.600 34.667,301.600 36.000 C 301.600 37.333,301.733 37.600,302.400 37.600 C 303.184 37.600,303.200 37.867,303.200 50.800 C 303.200 63.733,303.184 64.000,302.400 64.000 C 301.733 64.000,301.600 64.267,301.600 65.600 C 301.600 66.933,301.467 67.200,300.800 67.200 C 300.133 67.200,300.000 67.467,300.000 68.800 C 300.000 70.133,299.867 70.400,299.200 70.400 C 298.667 70.400,298.400 70.667,298.400 71.200 C 298.400 71.733,298.133 72.000,297.600 72.000 C 297.067 72.000,296.800 72.267,296.800 72.800 C 296.800 73.333,296.533 73.600,296.000 73.600 C 295.556 73.600,295.200 73.867,295.200 74.200 C 295.200 74.633,294.756 74.800,293.600 74.800 C 292.267 74.800,292.000 74.933,292.000 75.600 C 292.000 76.248,291.733 76.400,290.600 76.400 C 289.467 76.400,289.200 76.552,289.200 77.200 C 289.200 77.998,288.933 78.000,200.800 78.000 C 112.667 78.000,112.400 77.998,112.400 77.200 C 112.400 76.533,112.133 76.400,110.800 76.400 C 109.467 76.400,109.200 76.267,109.200 75.600 C 109.200 74.952,108.933 74.800,107.800 74.800 C 106.822 74.800,106.400 74.619,106.400 74.200 C 106.400 73.867,106.044 73.600,105.600 73.600 C 105.067 73.600,104.800 73.333,104.800 72.800 C 104.800 72.267,104.533 72.000,104.000 72.000 C 103.467 72.000,103.200 71.733,103.200 71.200 C 103.200 70.667,102.933 70.400,102.400 70.400 C 101.733 70.400,101.600 70.133,101.600 68.800 C 101.600 67.467,101.467 67.200,100.800 67.200 C 100.133 67.200,100.000 66.933,100.000 65.600 C 100.000 64.267,99.867 64.000,99.200 64.000 C 98.416 64.000,98.400 63.733,98.400 50.800 C 98.400 37.867,98.416 37.600,99.200 37.600 C 99.867 37.600,100.000 37.333,100.000 36.000 C 100.000 34.667,100.133 34.400,100.800 34.400 C 101.467 34.400,101.600 34.133,101.600 32.800 C 101.600 31.467,101.733 31.200,102.400 31.200 C 102.933 31.200,103.200 30.933,103.200 30.400 C 103.200 29.867,103.467 29.600,104.000 29.600 C 104.533 29.600,104.800 29.333,104.800 28.800 C 104.800 28.267,105.067 28.000,105.600 28.000 C 106.133 28.000,106.400 27.733,106.400 27.200 C 106.400 26.552,106.667 26.400,107.800 26.400 C 108.933 26.400,109.200 26.248,109.200 25.600 C 109.200 24.933,109.467 24.800,110.800 24.800 C 111.956 24.800,112.400 24.633,112.400 24.200 C 112.400 23.867,112.756 23.600,113.200 23.600 C 113.644 23.600,114.000 23.867,114.000 24.200 M16.200 63.486 C 15.085 63.756,13.675 65.135,13.476 66.150 C 13.318 66.955,13.306 66.951,13.254 66.082 C 13.184 64.901,14.894 63.186,16.082 63.246 C 16.898 63.288,16.911 63.314,16.200 63.486 M339.200 99.200 C 339.200 99.848,339.467 100.000,340.600 100.000 C 341.733 100.000,342.000 100.152,342.000 100.800 C 342.000 101.467,342.267 101.600,343.600 101.600 C 344.933 101.600,345.200 101.733,345.200 102.400 C 345.200 102.933,345.467 103.200,346.000 103.200 C 346.533 103.200,346.800 103.467,346.800 104.000 C 346.800 104.533,347.067 104.800,347.600 104.800 C 348.133 104.800,348.400 105.067,348.400 105.600 C 348.400 106.133,348.667 106.400,349.200 106.400 C 349.848 106.400,350.000 106.667,350.000 107.800 C 350.000 108.933,350.152 109.200,350.800 109.200 C 351.467 109.200,351.600 109.467,351.600 110.800 C 351.600 112.133,351.733 112.400,352.400 112.400 C 353.196 112.400,353.200 112.667,353.200 163.200 C 353.200 213.733,353.196 214.000,352.400 214.000 C 351.733 214.000,351.600 214.267,351.600 215.600 C 351.600 216.933,351.467 217.200,350.800 217.200 C 350.133 217.200,350.000 217.467,350.000 218.800 C 350.000 220.133,349.867 220.400,349.200 220.400 C 348.667 220.400,348.400 220.667,348.400 221.200 C 348.400 221.733,348.133 222.000,347.600 222.000 C 347.067 222.000,346.800 222.267,346.800 222.800 C 346.800 223.333,346.533 223.600,346.000 223.600 C 345.556 223.600,345.200 223.867,345.200 224.200 C 345.200 224.633,344.756 224.800,343.600 224.800 C 342.267 224.800,342.000 224.933,342.000 225.600 C 342.000 226.248,341.733 226.400,340.600 226.400 C 339.467 226.400,339.200 226.552,339.200 227.200 C 339.200 227.733,338.933 228.000,338.400 228.000 C 337.867 228.000,337.600 227.733,337.600 227.200 C 337.600 226.533,337.333 226.400,336.000 226.400 C 334.667 226.400,334.400 226.267,334.400 225.600 C 334.400 224.933,334.133 224.800,332.800 224.800 C 331.644 224.800,331.200 224.633,331.200 224.200 C 331.200 223.867,330.844 223.600,330.400 223.600 C 329.867 223.600,329.600 223.333,329.600 222.800 C 329.600 222.267,329.333 222.000,328.800 222.000 C 328.267 222.000,328.000 221.733,328.000 221.200 C 328.000 220.667,327.733 220.400,327.200 220.400 C 326.533 220.400,326.400 220.133,326.400 218.800 C 326.400 217.467,326.267 217.200,325.600 217.200 C 324.933 217.200,324.800 216.933,324.800 215.600 C 324.800 214.444,324.633 214.000,324.200 214.000 C 323.678 214.000,323.600 212.178,323.600 200.000 C 323.600 186.267,323.585 186.000,322.800 186.000 C 322.267 186.000,322.000 185.733,322.000 185.200 C 322.000 184.667,321.733 184.400,321.200 184.400 C 320.667 184.400,320.400 184.133,320.400 183.600 C 320.400 183.067,320.133 182.800,319.600 182.800 C 319.067 182.800,318.800 182.533,318.800 182.000 C 318.800 181.467,318.533 181.200,318.000 181.200 C 317.467 181.200,317.200 180.933,317.200 180.400 C 317.200 179.867,316.933 179.600,316.400 179.600 C 315.867 179.600,315.600 179.333,315.600 178.800 C 315.600 178.002,315.333 178.000,200.800 178.000 C 86.267 178.000,86.000 178.002,86.000 178.800 C 86.000 179.333,85.733 179.600,85.200 179.600 C 84.667 179.600,84.400 179.867,84.400 180.400 C 84.400 180.933,84.133 181.200,83.600 181.200 C 83.067 181.200,82.800 181.467,82.800 182.000 C 82.800 182.533,82.533 182.800,82.000 182.800 C 81.467 182.800,81.200 183.067,81.200 183.600 C 81.200 184.133,80.933 184.400,80.400 184.400 C 79.867 184.400,79.600 184.667,79.600 185.200 C 79.600 185.733,79.333 186.000,78.800 186.000 C 78.015 186.000,78.000 186.267,78.000 200.000 C 78.000 213.733,77.985 214.000,77.200 214.000 C 76.533 214.000,76.400 214.267,76.400 215.600 C 76.400 216.933,76.267 217.200,75.600 217.200 C 74.933 217.200,74.800 217.467,74.800 218.800 C 74.800 219.956,74.633 220.400,74.200 220.400 C 73.867 220.400,73.600 220.756,73.600 221.200 C 73.600 221.733,73.333 222.000,72.800 222.000 C 72.267 222.000,72.000 222.267,72.000 222.800 C 72.000 223.333,71.733 223.600,71.200 223.600 C 70.756 223.600,70.400 223.867,70.400 224.200 C 70.400 224.633,69.956 224.800,68.800 224.800 C 67.467 224.800,67.200 224.933,67.200 225.600 C 67.200 226.267,66.933 226.400,65.600 226.400 C 64.267 226.400,64.000 226.533,64.000 227.200 C 64.000 227.733,63.733 228.000,63.200 228.000 C 62.667 228.000,62.400 227.733,62.400 227.200 C 62.400 226.533,62.133 226.400,60.800 226.400 C 59.467 226.400,59.200 226.267,59.200 225.600 C 59.200 224.952,58.933 224.800,57.800 224.800 C 56.822 224.800,56.400 224.619,56.400 224.200 C 56.400 223.867,56.044 223.600,55.600 223.600 C 55.067 223.600,54.800 223.333,54.800 222.800 C 54.800 222.267,54.533 222.000,54.000 222.000 C 53.467 222.000,53.200 221.733,53.200 221.200 C 53.200 220.667,52.933 220.400,52.400 220.400 C 51.733 220.400,51.600 220.133,51.600 218.800 C 51.600 217.467,51.467 217.200,50.800 217.200 C 50.133 217.200,50.000 216.933,50.000 215.600 C 50.000 214.267,49.867 214.000,49.200 214.000 C 48.404 214.000,48.400 213.733,48.400 163.200 C 48.400 112.667,48.404 112.400,49.200 112.400 C 49.867 112.400,50.000 112.133,50.000 110.800 C 50.000 109.467,50.133 109.200,50.800 109.200 C 51.448 109.200,51.600 108.933,51.600 107.800 C 51.600 106.667,51.752 106.400,52.400 106.400 C 52.933 106.400,53.200 106.133,53.200 105.600 C 53.200 105.067,53.467 104.800,54.000 104.800 C 54.533 104.800,54.800 104.533,54.800 104.000 C 54.800 103.467,55.067 103.200,55.600 103.200 C 56.133 103.200,56.400 102.933,56.400 102.400 C 56.400 101.752,56.667 101.600,57.800 101.600 C 58.933 101.600,59.200 101.448,59.200 100.800 C 59.200 100.133,59.467 100.000,60.800 100.000 C 62.133 100.000,62.400 99.867,62.400 99.200 C 62.400 98.402,62.667 98.400,200.800 98.400 C 338.933 98.400,339.200 98.402,339.200 99.200 M310.800 128.800 C 310.800 129.333,310.533 129.600,310.000 129.600 C 309.467 129.600,309.200 129.867,309.200 130.400 C 309.200 130.844,308.933 131.200,308.600 131.200 C 308.267 131.200,308.000 131.556,308.000 132.000 C 308.000 132.533,307.733 132.800,307.200 132.800 C 306.667 132.800,306.400 133.067,306.400 133.600 C 306.400 134.133,306.133 134.400,305.600 134.400 C 305.067 134.400,304.800 134.667,304.800 135.200 C 304.800 135.733,304.533 136.000,304.000 136.000 C 303.289 136.000,303.200 136.267,303.200 138.400 C 303.200 140.533,303.289 140.800,304.000 140.800 C 304.444 140.800,304.800 141.067,304.800 141.400 C 304.800 141.733,305.156 142.000,305.600 142.000 C 306.133 142.000,306.400 142.267,306.400 142.800 C 306.400 143.333,306.667 143.600,307.200 143.600 C 307.733 143.600,308.000 143.867,308.000 144.400 C 308.000 144.844,308.267 145.200,308.600 145.200 C 308.933 145.200,309.200 145.556,309.200 146.000 C 309.200 146.533,309.467 146.800,310.000 146.800 C 310.533 146.800,310.800 147.067,310.800 147.600 C 310.800 148.311,311.067 148.400,313.200 148.400 C 315.333 148.400,315.600 148.311,315.600 147.600 C 315.600 147.067,315.867 146.800,316.400 146.800 C 316.933 146.800,317.200 146.533,317.200 146.000 C 317.200 145.467,317.467 145.200,318.000 145.200 C 318.533 145.200,318.800 144.933,318.800 144.400 C 318.800 143.867,319.067 143.600,319.600 143.600 C 320.133 143.600,320.400 143.333,320.400 142.800 C 320.400 142.267,320.667 142.000,321.200 142.000 C 321.644 142.000,322.000 141.733,322.000 141.400 C 322.000 141.067,322.356 140.800,322.800 140.800 C 323.511 140.800,323.600 140.533,323.600 138.400 C 323.600 136.267,323.511 136.000,322.800 136.000 C 322.267 136.000,322.000 135.733,322.000 135.200 C 322.000 134.667,321.733 134.400,321.200 134.400 C 320.667 134.400,320.400 134.133,320.400 133.600 C 320.400 133.067,320.133 132.800,319.600 132.800 C 319.067 132.800,318.800 132.533,318.800 132.000 C 318.800 131.467,318.533 131.200,318.000 131.200 C 317.467 131.200,317.200 130.933,317.200 130.400 C 317.200 129.867,316.933 129.600,316.400 129.600 C 315.867 129.600,315.600 129.333,315.600 128.800 C 315.600 128.089,315.333 128.000,313.200 128.000 C 311.067 128.000,310.800 128.089,310.800 128.800 M289.200 199.200 C 289.200 199.848,289.467 200.000,290.600 200.000 C 291.733 200.000,292.000 200.152,292.000 200.800 C 292.000 201.467,292.267 201.600,293.600 201.600 C 294.933 201.600,295.200 201.733,295.200 202.400 C 295.200 202.933,295.467 203.200,296.000 203.200 C 296.533 203.200,296.800 203.467,296.800 204.000 C 296.800 204.533,297.067 204.800,297.600 204.800 C 298.133 204.800,298.400 205.067,298.400 205.600 C 298.400 206.133,298.667 206.400,299.200 206.400 C 299.848 206.400,300.000 206.667,300.000 207.800 C 300.000 208.933,300.152 209.200,300.800 209.200 C 301.467 209.200,301.600 209.467,301.600 210.800 C 301.600 212.133,301.733 212.400,302.400 212.400 C 303.197 212.400,303.200 212.667,303.200 288.200 C 303.200 363.733,303.197 364.000,302.400 364.000 C 301.733 364.000,301.600 364.267,301.600 365.600 C 301.600 366.933,301.467 367.200,300.800 367.200 C 300.133 367.200,300.000 367.467,300.000 368.800 C 300.000 370.133,299.867 370.400,299.200 370.400 C 298.667 370.400,298.400 370.667,298.400 371.200 C 298.400 371.733,298.133 372.000,297.600 372.000 C 297.067 372.000,296.800 372.267,296.800 372.800 C 296.800 373.333,296.533 373.600,296.000 373.600 C 295.556 373.600,295.200 373.867,295.200 374.200 C 295.200 374.633,294.756 374.800,293.600 374.800 C 292.267 374.800,292.000 374.933,292.000 375.600 C 292.000 376.248,291.733 376.400,290.600 376.400 C 289.467 376.400,289.200 376.552,289.200 377.200 C 289.200 377.998,288.933 378.000,200.800 378.000 C 112.667 378.000,112.400 377.998,112.400 377.200 C 112.400 376.533,112.133 376.400,110.800 376.400 C 109.467 376.400,109.200 376.267,109.200 375.600 C 109.200 374.952,108.933 374.800,107.800 374.800 C 106.822 374.800,106.400 374.619,106.400 374.200 C 106.400 373.867,106.044 373.600,105.600 373.600 C 105.067 373.600,104.800 373.333,104.800 372.800 C 104.800 372.267,104.533 372.000,104.000 372.000 C 103.467 372.000,103.200 371.733,103.200 371.200 C 103.200 370.667,102.933 370.400,102.400 370.400 C 101.733 370.400,101.600 370.133,101.600 368.800 C 101.600 367.467,101.467 367.200,100.800 367.200 C 100.133 367.200,100.000 366.933,100.000 365.600 C 100.000 364.267,99.867 364.000,99.200 364.000 C 98.403 364.000,98.400 363.733,98.400 288.200 C 98.400 212.667,98.403 212.400,99.200 212.400 C 99.867 212.400,100.000 212.133,100.000 210.800 C 100.000 209.467,100.133 209.200,100.800 209.200 C 101.448 209.200,101.600 208.933,101.600 207.800 C 101.600 206.667,101.752 206.400,102.400 206.400 C 102.933 206.400,103.200 206.133,103.200 205.600 C 103.200 205.067,103.467 204.800,104.000 204.800 C 104.533 204.800,104.800 204.533,104.800 204.000 C 104.800 203.467,105.067 203.200,105.600 203.200 C 106.133 203.200,106.400 202.933,106.400 202.400 C 106.400 201.752,106.667 201.600,107.800 201.600 C 108.933 201.600,109.200 201.448,109.200 200.800 C 109.200 200.133,109.467 200.000,110.800 200.000 C 112.133 200.000,112.400 199.867,112.400 199.200 C 112.400 198.402,112.667 198.400,200.800 198.400 C 288.933 198.400,289.200 198.402,289.200 199.200 M136.000 228.800 C 136.000 229.333,135.733 229.600,135.200 229.600 C 134.667 229.600,134.400 229.867,134.400 230.400 C 134.400 230.933,134.133 231.200,133.600 231.200 C 133.067 231.200,132.800 231.467,132.800 232.000 C 132.800 232.533,132.533 232.800,132.000 232.800 C 131.467 232.800,131.200 233.067,131.200 233.600 C 131.200 234.133,130.933 234.400,130.400 234.400 C 129.867 234.400,129.600 234.667,129.600 235.200 C 129.600 235.733,129.333 236.000,128.800 236.000 C 128.089 236.000,128.000 236.267,128.000 238.400 C 128.000 240.533,128.089 240.800,128.800 240.800 C 129.244 240.800,129.600 241.067,129.600 241.400 C 129.600 241.733,129.956 242.000,130.400 242.000 C 130.933 242.000,131.200 242.267,131.200 242.800 C 131.200 243.333,131.467 243.600,132.000 243.600 C 132.533 243.600,132.800 243.867,132.800 244.400 C 132.800 244.933,133.067 245.200,133.600 245.200 C 134.133 245.200,134.400 245.467,134.400 246.000 C 134.400 246.533,134.667 246.800,135.200 246.800 C 135.733 246.800,136.000 247.067,136.000 247.600 C 136.000 248.311,136.267 248.400,138.400 248.400 C 140.533 248.400,140.800 248.311,140.800 247.600 C 140.800 247.156,141.067 246.800,141.400 246.800 C 141.733 246.800,142.000 246.444,142.000 246.000 C 142.000 245.467,142.267 245.200,142.800 245.200 C 143.333 245.200,143.600 244.933,143.600 244.400 C 143.600 243.867,143.867 243.600,144.400 243.600 C 144.933 243.600,145.200 243.333,145.200 242.800 C 145.200 242.267,145.467 242.000,146.000 242.000 C 146.444 242.000,146.800 241.733,146.800 241.400 C 146.800 241.067,147.156 240.800,147.600 240.800 C 148.311 240.800,148.400 240.533,148.400 238.400 C 148.400 236.267,148.311 236.000,147.600 236.000 C 147.067 236.000,146.800 235.733,146.800 235.200 C 146.800 234.667,146.533 234.400,146.000 234.400 C 145.467 234.400,145.200 234.133,145.200 233.600 C 145.200 233.067,144.933 232.800,144.400 232.800 C 143.867 232.800,143.600 232.533,143.600 232.000 C 143.600 231.467,143.333 231.200,142.800 231.200 C 142.267 231.200,142.000 230.933,142.000 230.400 C 142.000 229.956,141.733 229.600,141.400 229.600 C 141.067 229.600,140.800 229.244,140.800 228.800 C 140.800 228.089,140.533 228.000,138.400 228.000 C 136.267 228.000,136.000 228.089,136.000 228.800 M260.800 228.800 C 260.800 229.333,260.533 229.600,260.000 229.600 C 259.467 229.600,259.200 229.867,259.200 230.400 C 259.200 230.844,258.933 231.200,258.600 231.200 C 258.267 231.200,258.000 231.556,258.000 232.000 C 258.000 232.533,257.733 232.800,257.200 232.800 C 256.667 232.800,256.400 233.067,256.400 233.600 C 256.400 234.133,256.133 234.400,255.600 234.400 C 255.067 234.400,254.800 234.667,254.800 235.200 C 254.800 235.733,254.533 236.000,254.000 236.000 C 253.289 236.000,253.200 236.267,253.200 238.400 C 253.200 240.533,253.289 240.800,254.000 240.800 C 254.444 240.800,254.800 241.067,254.800 241.400 C 254.800 241.733,255.156 242.000,255.600 242.000 C 256.133 242.000,256.400 242.267,256.400 242.800 C 256.400 243.333,256.667 243.600,257.200 243.600 C 257.733 243.600,258.000 243.867,258.000 244.400 C 258.000 244.844,258.267 245.200,258.600 245.200 C 258.933 245.200,259.200 245.556,259.200 246.000 C 259.200 246.533,259.467 246.800,260.000 246.800 C 260.533 246.800,260.800 247.067,260.800 247.600 C 260.800 248.311,261.067 248.400,263.200 248.400 C 265.333 248.400,265.600 248.311,265.600 247.600 C 265.600 247.067,265.867 246.800,266.400 246.800 C 266.933 246.800,267.200 246.533,267.200 246.000 C 267.200 245.467,267.467 245.200,268.000 245.200 C 268.533 245.200,268.800 244.933,268.800 244.400 C 268.800 243.867,269.067 243.600,269.600 243.600 C 270.133 243.600,270.400 243.333,270.400 242.800 C 270.400 242.267,270.667 242.000,271.200 242.000 C 271.644 242.000,272.000 241.733,272.000 241.400 C 272.000 241.067,272.356 240.800,272.800 240.800 C 273.511 240.800,273.600 240.533,273.600 238.400 C 273.600 236.267,273.511 236.000,272.800 236.000 C 272.267 236.000,272.000 235.733,272.000 235.200 C 272.000 234.667,271.733 234.400,271.200 234.400 C 270.667 234.400,270.400 234.133,270.400 233.600 C 270.400 233.067,270.133 232.800,269.600 232.800 C 269.067 232.800,268.800 232.533,268.800 232.000 C 268.800 231.467,268.533 231.200,268.000 231.200 C 267.467 231.200,267.200 230.933,267.200 230.400 C 267.200 229.867,266.933 229.600,266.400 229.600 C 265.867 229.600,265.600 229.333,265.600 228.800 C 265.600 228.089,265.333 228.000,263.200 228.000 C 261.067 228.000,260.800 228.089,260.800 228.800 M136.000 278.800 C 136.000 279.333,135.733 279.600,135.200 279.600 C 134.667 279.600,134.400 279.867,134.400 280.400 C 134.400 280.933,134.133 281.200,133.600 281.200 C 133.067 281.200,132.800 281.467,132.800 282.000 C 132.800 282.533,132.533 282.800,132.000 282.800 C 131.467 282.800,131.200 283.067,131.200 283.600 C 131.200 284.133,130.933 284.400,130.400 284.400 C 129.867 284.400,129.600 284.667,129.600 285.200 C 129.600 285.733,129.333 286.000,128.800 286.000 C 128.089 286.000,128.000 286.267,128.000 288.400 C 128.000 290.533,128.089 290.800,128.800 290.800 C 129.244 290.800,129.600 291.067,129.600 291.400 C 129.600 291.733,129.956 292.000,130.400 292.000 C 130.933 292.000,131.200 292.267,131.200 292.800 C 131.200 293.333,131.467 293.600,132.000 293.600 C 132.533 293.600,132.800 293.867,132.800 294.400 C 132.800 294.933,133.067 295.200,133.600 295.200 C 134.133 295.200,134.400 295.467,134.400 296.000 C 134.400 296.533,134.667 296.800,135.200 296.800 C 135.733 296.800,136.000 297.067,136.000 297.600 C 136.000 298.311,136.267 298.400,138.400 298.400 C 140.533 298.400,140.800 298.311,140.800 297.600 C 140.800 297.156,141.067 296.800,141.400 296.800 C 141.733 296.800,142.000 296.444,142.000 296.000 C 142.000 295.467,142.267 295.200,142.800 295.200 C 143.333 295.200,143.600 294.933,143.600 294.400 C 143.600 293.867,143.867 293.600,144.400 293.600 C 144.933 293.600,145.200 293.333,145.200 292.800 C 145.200 292.267,145.467 292.000,146.000 292.000 C 146.444 292.000,146.800 291.733,146.800 291.400 C 146.800 291.067,147.156 290.800,147.600 290.800 C 148.311 290.800,148.400 290.533,148.400 288.400 C 148.400 286.267,148.311 286.000,147.600 286.000 C 147.067 286.000,146.800 285.733,146.800 285.200 C 146.800 284.667,146.533 284.400,146.000 284.400 C 145.467 284.400,145.200 284.133,145.200 283.600 C 145.200 283.067,144.933 282.800,144.400 282.800 C 143.867 282.800,143.600 282.533,143.600 282.000 C 143.600 281.467,143.333 281.200,142.800 281.200 C 142.267 281.200,142.000 280.933,142.000 280.400 C 142.000 279.956,141.733 279.600,141.400 279.600 C 141.067 279.600,140.800 279.244,140.800 278.800 C 140.800 278.089,140.533 278.000,138.400 278.000 C 136.267 278.000,136.000 278.089,136.000 278.800 M260.800 278.800 C 260.800 279.333,260.533 279.600,260.000 279.600 C 259.467 279.600,259.200 279.867,259.200 280.400 C 259.200 280.844,258.933 281.200,258.600 281.200 C 258.267 281.200,258.000 281.556,258.000 282.000 C 258.000 282.533,257.733 282.800,257.200 282.800 C 256.667 282.800,256.400 283.067,256.400 283.600 C 256.400 284.133,256.133 284.400,255.600 284.400 C 255.067 284.400,254.800 284.667,254.800 285.200 C 254.800 285.733,254.533 286.000,254.000 286.000 C 253.289 286.000,253.200 286.267,253.200 288.400 C 253.200 290.533,253.289 290.800,254.000 290.800 C 254.444 290.800,254.800 291.067,254.800 291.400 C 254.800 291.733,255.156 292.000,255.600 292.000 C 256.133 292.000,256.400 292.267,256.400 292.800 C 256.400 293.333,256.667 293.600,257.200 293.600 C 257.733 293.600,258.000 293.867,258.000 294.400 C 258.000 294.844,258.267 295.200,258.600 295.200 C 258.933 295.200,259.200 295.556,259.200 296.000 C 259.200 296.533,259.467 296.800,260.000 296.800 C 260.533 296.800,260.800 297.067,260.800 297.600 C 260.800 298.311,261.067 298.400,263.200 298.400 C 265.333 298.400,265.600 298.311,265.600 297.600 C 265.600 297.067,265.867 296.800,266.400 296.800 C 266.933 296.800,267.200 296.533,267.200 296.000 C 267.200 295.467,267.467 295.200,268.000 295.200 C 268.533 295.200,268.800 294.933,268.800 294.400 C 268.800 293.867,269.067 293.600,269.600 293.600 C 270.133 293.600,270.400 293.333,270.400 292.800 C 270.400 292.267,270.667 292.000,271.200 292.000 C 271.644 292.000,272.000 291.733,272.000 291.400 C 272.000 291.067,272.356 290.800,272.800 290.800 C 273.511 290.800,273.600 290.533,273.600 288.400 C 273.600 286.267,273.511 286.000,272.800 286.000 C 272.267 286.000,272.000 285.733,272.000 285.200 C 272.000 284.667,271.733 284.400,271.200 284.400 C 270.667 284.400,270.400 284.133,270.400 283.600 C 270.400 283.067,270.133 282.800,269.600 282.800 C 269.067 282.800,268.800 282.533,268.800 282.000 C 268.800 281.467,268.533 281.200,268.000 281.200 C 267.467 281.200,267.200 280.933,267.200 280.400 C 267.200 279.867,266.933 279.600,266.400 279.600 C 265.867 279.600,265.600 279.333,265.600 278.800 C 265.600 278.089,265.333 278.000,263.200 278.000 C 261.067 278.000,260.800 278.089,260.800 278.800 M38.025 284.624 C 37.991 285.723,38.777 286.661,40.000 286.980 C 40.989 287.239,40.988 287.232,39.865 286.362 C 39.241 285.879,38.578 285.104,38.391 284.641 C 38.053 283.805,38.051 283.805,38.025 284.624 M136.000 328.800 C 136.000 329.333,135.733 329.600,135.200 329.600 C 134.667 329.600,134.400 329.867,134.400 330.400 C 134.400 330.933,134.133 331.200,133.600 331.200 C 133.067 331.200,132.800 331.467,132.800 332.000 C 132.800 332.533,132.533 332.800,132.000 332.800 C 131.467 332.800,131.200 333.067,131.200 333.600 C 131.200 334.133,130.933 334.400,130.400 334.400 C 129.867 334.400,129.600 334.667,129.600 335.200 C 129.600 335.733,129.333 336.000,128.800 336.000 C 128.089 336.000,128.000 336.267,128.000 338.400 C 128.000 340.533,128.089 340.800,128.800 340.800 C 129.244 340.800,129.600 341.067,129.600 341.400 C 129.600 341.733,129.956 342.000,130.400 342.000 C 130.933 342.000,131.200 342.267,131.200 342.800 C 131.200 343.333,131.467 343.600,132.000 343.600 C 132.533 343.600,132.800 343.867,132.800 344.400 C 132.800 344.933,133.067 345.200,133.600 345.200 C 134.133 345.200,134.400 345.467,134.400 346.000 C 134.400 346.533,134.667 346.800,135.200 346.800 C 135.733 346.800,136.000 347.067,136.000 347.600 C 136.000 348.311,136.267 348.400,138.400 348.400 C 140.533 348.400,140.800 348.311,140.800 347.600 C 140.800 347.156,141.067 346.800,141.400 346.800 C 141.733 346.800,142.000 346.444,142.000 346.000 C 142.000 345.467,142.267 345.200,142.800 345.200 C 143.333 345.200,143.600 344.933,143.600 344.400 C 143.600 343.867,143.867 343.600,144.400 343.600 C 144.933 343.600,145.200 343.333,145.200 342.800 C 145.200 342.267,145.467 342.000,146.000 342.000 C 146.444 342.000,146.800 341.733,146.800 341.400 C 146.800 341.067,147.156 340.800,147.600 340.800 C 148.311 340.800,148.400 340.533,148.400 338.400 C 148.400 336.267,148.311 336.000,147.600 336.000 C 147.067 336.000,146.800 335.733,146.800 335.200 C 146.800 334.667,146.533 334.400,146.000 334.400 C 145.467 334.400,145.200 334.133,145.200 333.600 C 145.200 333.067,144.933 332.800,144.400 332.800 C 143.867 332.800,143.600 332.533,143.600 332.000 C 143.600 331.467,143.333 331.200,142.800 331.200 C 142.267 331.200,142.000 330.933,142.000 330.400 C 142.000 329.956,141.733 329.600,141.400 329.600 C 141.067 329.600,140.800 329.244,140.800 328.800 C 140.800 328.089,140.533 328.000,138.400 328.000 C 136.267 328.000,136.000 328.089,136.000 328.800 M260.800 328.800 C 260.800 329.333,260.533 329.600,260.000 329.600 C 259.467 329.600,259.200 329.867,259.200 330.400 C 259.200 330.844,258.933 331.200,258.600 331.200 C 258.267 331.200,258.000 331.556,258.000 332.000 C 258.000 332.533,257.733 332.800,257.200 332.800 C 256.667 332.800,256.400 333.067,256.400 333.600 C 256.400 334.133,256.133 334.400,255.600 334.400 C 255.067 334.400,254.800 334.667,254.800 335.200 C 254.800 335.733,254.533 336.000,254.000 336.000 C 253.289 336.000,253.200 336.267,253.200 338.400 C 253.200 340.533,253.289 340.800,254.000 340.800 C 254.444 340.800,254.800 341.067,254.800 341.400 C 254.800 341.733,255.156 342.000,255.600 342.000 C 256.133 342.000,256.400 342.267,256.400 342.800 C 256.400 343.333,256.667 343.600,257.200 343.600 C 257.733 343.600,258.000 343.867,258.000 344.400 C 258.000 344.844,258.267 345.200,258.600 345.200 C 258.933 345.200,259.200 345.556,259.200 346.000 C 259.200 346.533,259.467 346.800,260.000 346.800 C 260.533 346.800,260.800 347.067,260.800 347.600 C 260.800 348.311,261.067 348.400,263.200 348.400 C 265.333 348.400,265.600 348.311,265.600 347.600 C 265.600 347.067,265.867 346.800,266.400 346.800 C 266.933 346.800,267.200 346.533,267.200 346.000 C 267.200 345.467,267.467 345.200,268.000 345.200 C 268.533 345.200,268.800 344.933,268.800 344.400 C 268.800 343.867,269.067 343.600,269.600 343.600 C 270.133 343.600,270.400 343.333,270.400 342.800 C 270.400 342.267,270.667 342.000,271.200 342.000 C 271.644 342.000,272.000 341.733,272.000 341.400 C 272.000 341.067,272.356 340.800,272.800 340.800 C 273.511 340.800,273.600 340.533,273.600 338.400 C 273.600 336.267,273.511 336.000,272.800 336.000 C 272.267 336.000,272.000 335.733,272.000 335.200 C 272.000 334.667,271.733 334.400,271.200 334.400 C 270.667 334.400,270.400 334.133,270.400 333.600 C 270.400 333.067,270.133 332.800,269.600 332.800 C 269.067 332.800,268.800 332.533,268.800 332.000 C 268.800 331.467,268.533 331.200,268.000 331.200 C 267.467 331.200,267.200 330.933,267.200 330.400 C 267.200 329.867,266.933 329.600,266.400 329.600 C 265.867 329.600,265.600 329.333,265.600 328.800 C 265.600 328.089,265.333 328.000,263.200 328.000 C 261.067 328.000,260.800 328.089,260.800 328.800 " stroke="none" fill="#848494" fill-rule="evenodd"></path><path id="path2" d="" stroke="none" fill="#dc100c8" fill-rule="evenodd"></path><path id="path3" d="" stroke="none" fill="#dc100c8" fill-rule="evenodd"></path><path id="path4" d="" stroke="none" fill="#dc100c8" fill-rule="evenodd"></path></g></svg>